999
dxfrw 0.6.3
  0
SECTION
  2
HEADER
  9
$ACADVER
  1
AC1021
  9
$DWGCODEPAGE
  3
ANSI_1252
  9
$INSBASE
 10
0
 20
0
 30
0
  9
$EXTMIN
 10
-127.8125
 20
-81.00000000000003
 30
0
  9
$EXTMAX
 10
90
 20
117.8125
 30
0
  9
$LIMMIN
 10
0
 20
0
  9
$LIMMAX
 10
420
 20
297
  9
$ORTHOMODE
 70
    0
  9
$REGENMODE
 70
    1
  9
$FILLMODE
 70
    1
  9
$QTEXTMODE
 70
    0
  9
$MIRRTEXT
 70
    0
  9
$LTSCALE
 40
1
  9
$ATTMODE
 70
    0
  9
$TEXTSIZE
 40
2.5
  9
$TRACEWID
 40
15.68
  9
$TEXTSTYLE
  7
STANDARD
  9
$CLAYER
  8
dimensions_lin
  9
$CELTYPE
  6
BYLAYER
  9
$CECOLOR
 62
  256
  9
$CELTSCALE
 40
1
  9
$DISPSILH
 70
    0
  9
$DIMSCALE
 40
2.5
  9
$DIMASZ
 40
2.5
  9
$DIMEXO
 40
0.625
  9
$DIMDLI
 40
3.75
  9
$DIMRND
 40
0
  9
$DIMDLE
 40
0
  9
$DIMEXE
 40
1.25
  9
$DIMTP
 40
0
  9
$DIMTM
 40
0
  9
$DIMTXT
 40
2.5
  9
$DIMCEN
 40
2.5
  9
$DIMTSZ
 40
0
  9
$DIMTOL
 70
    0
  9
$DIMLIM
 70
    0
  9
$DIMTIH
 70
    0
  9
$DIMTOH
 70
    0
  9
$DIMSE1
 70
    0
  9
$DIMSE2
 70
    0
  9
$DIMTAD
 70
    1
  9
$DIMZIN
 70
    8
  9
$DIMBLK
  1

  9
$DIMASO
 70
    1
  9
$DIMSHO
 70
    1
  9
$DIMPOST
  1

  9
$DIMAPOST
  1

  9
$DIMALT
 70
    0
  9
$DIMALTD
 70
    3
  9
$DIMALTF
 40
0.03937
  9
$DIMLFAC
 40
1
  9
$DIMTOFL
 70
    1
  9
$DIMTVP
 40
0
  9
$DIMTIX
 70
    0
  9
$DIMSOXD
 70
    0
  9
$DIMSAH
 70
    0
  9
$DIMBLK1
  1

  9
$DIMBLK2
  1

  9
$DIMSTYLE
  2
STANDARD
  9
$DIMCLRD
 70
    0
  9
$DIMCLRE
 70
    0
  9
$DIMCLRT
 70
    0
  9
$DIMTFAC
 40
1
  9
$DIMGAP
 40
0.625
  9
$DIMJUST
 70
    0
  9
$DIMSD1
 70
    0
  9
$DIMSD2
 70
    0
  9
$DIMTOLJ
 70
    0
  9
$DIMTZIN
 70
    8
  9
$DIMALTZ
 70
    0
  9
$DIMALTTZ
 70
    0
  9
$DIMUPT
 70
    0
  9
$DIMDEC
 70
    4
  9
$DIMTDEC
 70
    2
  9
$DIMALTU
 70
    2
  9
$DIMALTTD
 70
    3
  9
$DIMTXSTY
  7
STANDARD
  9
$DIMAUNIT
 70
    0
  9
$DIMADEC
 70
    0
  9
$DIMALTRND
 40
0
  9
$DIMAZIN
 70
    0
  9
$DIMDSEP
 70
   44
  9
$DIMATFIT
 70
    3
  9
$DIMFRAC
 70
    0
  9
$DIMLDRBLK
  1
STANDARD
  9
$DIMLUNIT
 70
    2
  9
$DIMLWD
 70
   -2
  9
$DIMLWE
 70
   -2
  9
$DIMTMOVE
 70
    0
  9
$DIMFXL
 40
1
  9
$DIMFXLON
 70
    0
  9
$DIMJOGANG
 40
0.7854
  9
$DIMTFILL
 70
    0
  9
$DIMTFILLCLR
 70
    0
  9
$DIMARCSYM
 70
    0
  9
$DIMLTYPE
  6

  9
$DIMLTEX1
  6

  9
$DIMLTEX2
  6

  9
$LUNITS
 70
    2
  9
$LUPREC
 70
    4
  9
$SKETCHINC
 40
1
  9
$FILLETRAD
 40
0
  9
$AUNITS
 70
    0
  9
$AUPREC
 70
    2
  9
$MENU
  1
.
  9
$ELEVATION
 40
0
  9
$PELEVATION
 40
0
  9
$THICKNESS
 40
0
  9
$LIMCHECK
 70
    0
  9
$CHAMFERA
 40
0
  9
$CHAMFERB
 40
0
  9
$CHAMFERC
 40
0
  9
$CHAMFERD
 40
0
  9
$SKPOLY
 70
    0
  9
$USRTIMER
 70
    1
  9
$ANGBASE
 50
0
  9
$ANGDIR
 70
    0
  9
$PDMODE
 70
   34
  9
$PDSIZE
 40
0
  9
$PLINEWID
 40
0
  9
$SPLFRAME
 70
    0
  9
$SPLINETYPE
 70
    2
  9
$SPLINESEGS
 70
    8
  9
$HANDSEED
  5
20000
  9
$SURFTAB1
 70
    6
  9
$SURFTAB2
 70
    6
  9
$SURFTYPE
 70
    6
  9
$SURFU
 70
    6
  9
$SURFV
 70
    6
  9
$UCSBASE
  2

  9
$UCSNAME
  2

  9
$UCSORG
 10
0
 20
0
 30
0
  9
$UCSXDIR
 10
1
 20
0
 30
0
  9
$UCSYDIR
 10
0
 20
1
 30
0
  9
$UCSORTHOREF
  2

  9
$UCSORTHOVIEW
 70
    0
  9
$UCSORGTOP
 10
0
 20
0
 30
0
  9
$UCSORGBOTTOM
 10
0
 20
0
 30
0
  9
$UCSORGLEFT
 10
0
 20
0
 30
0
  9
$UCSORGRIGHT
 10
0
 20
0
 30
0
  9
$UCSORGFRONT
 10
0
 20
0
 30
0
  9
$UCSORGBACK
 10
0
 20
0
 30
0
  9
$PUCSBASE
  2

  9
$PUCSNAME
  2

  9
$PUCSORG
 10
0
 20
0
 30
0
  9
$PUCSXDIR
 10
1
 20
0
 30
0
  9
$PUCSYDIR
 10
0
 20
1
 30
0
  9
$PUCSORTHOREF
  2

  9
$PUCSORTHOVIEW
 70
    0
  9
$PUCSORGTOP
 10
0
 20
0
 30
0
  9
$PUCSORGBOTTOM
 10
0
 20
0
 30
0
  9
$PUCSORGLEFT
 10
0
 20
0
 30
0
  9
$PUCSORGRIGHT
 10
0
 20
0
 30
0
  9
$PUCSORGFRONT
 10
0
 20
0
 30
0
  9
$PUCSORGBACK
 10
0
 20
0
 30
0
  9
$USERI1
 70
    0
  9
$USERI2
 70
    0
  9
$USERI3
 70
    0
  9
$USERI4
 70
    0
  9
$USERI5
 70
    0
  9
$USERR1
 40
0
  9
$USERR2
 40
0
  9
$USERR3
 40
0
  9
$USERR4
 40
0
  9
$USERR5
 40
0
  9
$WORLDVIEW
 70
    1
  9
$SHADEDGE
 70
    3
  9
$SHADEDIF
 70
   70
  9
$TILEMODE
 70
    1
  9
$MAXACTVP
 70
   64
  9
$PINSBASE
 10
0
 20
0
 30
0
  9
$PLIMCHECK
 70
    0
  9
$PEXTMIN
 10
0
 20
0
 30
0
  9
$PEXTMAX
 10
0
 20
0
 30
0
  9
$GRIDMODE
 70
    0
  9
$SNAPSTYLE
 70
    0
  9
$GRIDUNIT
 10
0
 20
0
  9
$PLIMMIN
 10
0
 20
0
  9
$PLIMMAX
 10
420
 20
297
  9
$UNITMODE
 70
    0
  9
$VISRETAIN
 70
    1
  9
$PLINEGEN
 70
    0
  9
$PSLTSCALE
 70
    1
  9
$TREEDEPTH
 70
 3020
  9
$CMLSTYLE
  2
Standard
  9
$CMLJUST
 70
    0
  9
$CMLSCALE
 40
20
  9
$PROXYGRAPHICS
 70
    1
  9
$MEASUREMENT
 70
    1
  9
$CELWEIGHT
370
   -1
  9
$ENDCAPS
280
    0
  9
$JOINSTYLE
280
    0
  9
$LWDISPLAY
290
    0
  9
$INSUNITS
 70
    4
  9
$HYPERLINKBASE
  1

  9
$STYLESHEET
  1

  9
$XEDIT
290
    1
  9
$CEPSNTYPE
380
    0
  9
$PSTYLEMODE
290
    1
  9
$EXTNAMES
290
    1
  9
$PSVPSCALE
 40
0
  9
$OLESTARTUP
290
    0
  9
$SORTENTS
280
  127
  9
$INDEXCTL
280
    0
  9
$HIDETEXT
280
    1
  9
$XCLIPFRAME
290
    0
  9
$HALOGAP
280
    0
  9
$OBSCOLOR
 70
  257
  9
$OBSLTYPE
280
    0
  9
$INTERSECTIONDISPLAY
280
    0
  9
$INTERSECTIONCOLOR
 70
  257
  9
$DIMASSOC
280
    1
  9
$PROJECTNAME
  1

  9
$CAMERADISPLAY
290
    0
  9
$LENSLENGTH
 40
50
  9
$CAMERAHEIGHT
 40
0
  9
$STEPSPERSEC
 40
2
  9
$STEPSIZE
 40
50
  9
$3DDWFPREC
 40
2
  9
$PSOLWIDTH
 40
5
  9
$PSOLHEIGHT
 40
80
  9
$LOFTANG1
 40
1.570796326794897
  9
$LOFTANG2
 40
1.570796326794897
  9
$LOFTMAG1
 40
0
  9
$LOFTMAG2
 40
0
  9
$LOFTPARAM
 70
    7
  9
$LOFTNORMALS
280
    1
  9
$LATITUDE
 40
1
  9
$LONGITUDE
 40
1
  9
$NORTHDIRECTION
 40
0
  9
$TIMEZONE
 70
-8000
  9
$LIGHTGLYPHDISPLAY
280
    1
  9
$TILEMODELIGHTSYNCH
280
    1
  9
$SOLIDHIST
280
    1
  9
$SHOWHIST
280
    1
  9
$DWFFRAME
280
    2
  9
$DGNFRAME
280
    0
  9
$REALWORLDSCALE
290
    1
  9
$INTERFERECOLOR
 62
    1
  9
$CSHADOW
280
    0
  9
$SHADOWPLANELOCATION
 40
0
  0
ENDSEC
  0
SECTION
  2
CLASSES
  0
ENDSEC
  0
SECTION
  2
TABLES
  0
TABLE
  2
VPORT
  5
8
330
0
100
AcDbSymbolTable
 70
    1
  0
VPORT
  5
31
330
2
100
AcDbSymbolTableRecord
100
AcDbViewportTableRecord
  2
*ACTIVE
 70
    0
 10
0
 20
0
 11
1
 21
1
 12
134.1247837500193
 22
76.91975550001108
 13
0
 23
0
 14
10
 24
10
 15
10
 25
10
 16
0
 26
0
 36
1
 17
0
 27
0
 37
0
 40
296.3672932500427
 41
1.521264994547437
 42
50
 43
0
 44
0
 50
0
 51
0
 71
    0
 72
  100
 73
    1
 74
    3
 75
    0
 76
    0
 77
    0
 78
    0
281
    0
 65
    1
110
0
120
0
130
0
111
1
121
0
131
0
112
0
122
1
132
0
 79
    0
146
0
348
10020
 60
    7
 61
    5
292
1
282
    1
141
0
142
0
 63
  250
421
3358443
  0
ENDTAB
  0
TABLE
  2
LTYPE
  5
5
330
0
100
AcDbSymbolTable
 70
    4
  0
LTYPE
  5
14
330
5
100
AcDbSymbolTableRecord
100
AcDbLinetypeTableRecord
  2
ByBlock
 70
    0
  3

 72
   65
 73
    0
 40
0
  0
LTYPE
  5
15
330
5
100
AcDbSymbolTableRecord
100
AcDbLinetypeTableRecord
  2
ByLayer
 70
    0
  3

 72
   65
 73
    0
 40
0
  0
LTYPE
  5
16
330
5
100
AcDbSymbolTableRecord
100
AcDbLinetypeTableRecord
  2
Continuous
 70
    0
  3
Solid line
 72
   65
 73
    0
 40
0
  0
LTYPE
  5
32
330
5
100
AcDbSymbolTableRecord
100
AcDbLinetypeTableRecord
  2
DOT
 70
    0
  3
Dot . . . . . . . . . . . . . . . . . . . . . .
 72
   65
 73
    2
 40
6.35
 49
0
 74
    0
 49
-6.35
 74
    0
  0
LTYPE
  5
33
330
5
100
AcDbSymbolTableRecord
100
AcDbLinetypeTableRecord
  2
DOTTINY
 70
    0
  3
Dot (.15x) .....................................
 72
   65
 73
    2
 40
0.9525
 49
0
 74
    0
 49
-0.9525
 74
    0
  0
LTYPE
  5
34
330
5
100
AcDbSymbolTableRecord
100
AcDbLinetypeTableRecord
  2
DOT2
 70
    0
  3
Dot (.5x) .....................................
 72
   65
 73
    2
 40
3.175
 49
0
 74
    0
 49
-3.175
 74
    0
  0
LTYPE
  5
35
330
5
100
AcDbSymbolTableRecord
100
AcDbLinetypeTableRecord
  2
DOTX2
 70
    0
  3
Dot (2x) .  .  .  .  .  .  .  .  .  .  .  .  .
 72
   65
 73
    2
 40
12.7
 49
0
 74
    0
 49
-12.7
 74
    0
  0
LTYPE
  5
36
330
5
100
AcDbSymbolTableRecord
100
AcDbLinetypeTableRecord
  2
DASHED
 70
    0
  3
Dashed _ _ _ _ _ _ _ _ _ _ _ _ _ _ _ _ _
 72
   65
 73
    2
 40
19.05
 49
12.7
 74
    0
 49
-6.35
 74
    0
  0
LTYPE
  5
37
330
5
100
AcDbSymbolTableRecord
100
AcDbLinetypeTableRecord
  2
DASHEDTINY
 70
    0
  3
Dashed (.15x) _ _ _ _ _ _ _ _ _ _ _ _ _ _ _ _ _
 72
   65
 73
    2
 40
2.8575
 49
1.905
 74
    0
 49
-0.9525
 74
    0
  0
LTYPE
  5
38
330
5
100
AcDbSymbolTableRecord
100
AcDbLinetypeTableRecord
  2
DASHED2
 70
    0
  3
Dashed (.5x) _ _ _ _ _ _ _ _ _ _ _ _ _ _ _ _ _
 72
   65
 73
    2
 40
9.524999999999999
 49
6.35
 74
    0
 49
-3.175
 74
    0
  0
LTYPE
  5
39
330
5
100
AcDbSymbolTableRecord
100
AcDbLinetypeTableRecord
  2
DASHEDX2
 70
    0
  3
Dashed (2x) ____  ____  ____  ____  ____  ___
 72
   65
 73
    2
 40
38.09999999999999
 49
25.4
 74
    0
 49
-12.7
 74
    0
  0
LTYPE
  5
3A
330
5
100
AcDbSymbolTableRecord
100
AcDbLinetypeTableRecord
  2
DASHDOT
 70
    0
  3
Dash dot __ . __ . __ . __ . __ . __ . __ . __
 72
   65
 73
    4
 40
25.4
 49
12.7
 74
    0
 49
-6.35
 74
    0
 49
0
 74
    0
 49
-6.35
 74
    0
  0
LTYPE
  5
3B
330
5
100
AcDbSymbolTableRecord
100
AcDbLinetypeTableRecord
  2
DASHDOTTINY
 70
    0
  3
Dash dot (.15x) _._._._._._._._._._._._._._._.
 72
   65
 73
    4
 40
3.81
 49
1.905
 74
    0
 49
-0.9525
 74
    0
 49
0
 74
    0
 49
-0.9525
 74
    0
  0
LTYPE
  5
3C
330
5
100
AcDbSymbolTableRecord
100
AcDbLinetypeTableRecord
  2
DASHDOT2
 70
    0
  3
Dash dot (.5x) _._._._._._._._._._._._._._._.
 72
   65
 73
    4
 40
12.7
 49
6.35
 74
    0
 49
-3.175
 74
    0
 49
0
 74
    0
 49
-3.175
 74
    0
  0
LTYPE
  5
3D
330
5
100
AcDbSymbolTableRecord
100
AcDbLinetypeTableRecord
  2
DASHDOTX2
 70
    0
  3
Dash dot (2x) ____  .  ____  .  ____  .  ___
 72
   65
 73
    4
 40
50.8
 49
25.4
 74
    0
 49
-12.7
 74
    0
 49
0
 74
    0
 49
-12.7
 74
    0
  0
LTYPE
  5
3E
330
5
100
AcDbSymbolTableRecord
100
AcDbLinetypeTableRecord
  2
DIVIDE
 70
    0
  3
Divide ____ . . ____ . . ____ . . ____ . . ____
 72
   65
 73
    6
 40
31.75
 49
12.7
 74
    0
 49
-6.35
 74
    0
 49
0
 74
    0
 49
-6.35
 74
    0
 49
0
 74
    0
 49
-6.35
 74
    0
  0
LTYPE
  5
3F
330
5
100
AcDbSymbolTableRecord
100
AcDbLinetypeTableRecord
  2
DIVIDETINY
 70
    0
  3
Divide (.15x) __..__..__..__..__..__..__..__.._
 72
   65
 73
    6
 40
4.7625
 49
1.905
 74
    0
 49
-0.9525
 74
    0
 49
0
 74
    0
 49
-0.9525
 74
    0
 49
0
 74
    0
 49
-0.9525
 74
    0
  0
LTYPE
  5
40
330
5
100
AcDbSymbolTableRecord
100
AcDbLinetypeTableRecord
  2
DIVIDE2
 70
    0
  3
Divide (.5x) __..__..__..__..__..__..__..__.._
 72
   65
 73
    6
 40
15.875
 49
6.35
 74
    0
 49
-3.175
 74
    0
 49
0
 74
    0
 49
-3.175
 74
    0
 49
0
 74
    0
 49
-3.175
 74
    0
  0
LTYPE
  5
41
330
5
100
AcDbSymbolTableRecord
100
AcDbLinetypeTableRecord
  2
DIVIDEX2
 70
    0
  3
Divide (2x) ________  .  .  ________  .  .  _
 72
   65
 73
    6
 40
63.5
 49
25.4
 74
    0
 49
-12.7
 74
    0
 49
0
 74
    0
 49
-12.7
 74
    0
 49
0
 74
    0
 49
-12.7
 74
    0
  0
LTYPE
  5
42
330
5
100
AcDbSymbolTableRecord
100
AcDbLinetypeTableRecord
  2
BORDER
 70
    0
  3
Border __ __ . __ __ . __ __ . __ __ . __ __ .
 72
   65
 73
    6
 40
44.45
 49
12.7
 74
    0
 49
-6.35
 74
    0
 49
12.7
 74
    0
 49
-6.35
 74
    0
 49
0
 74
    0
 49
-6.35
 74
    0
  0
LTYPE
  5
43
330
5
100
AcDbSymbolTableRecord
100
AcDbLinetypeTableRecord
  2
BORDERTINY
 70
    0
  3
Border (.15x) __.__.__.__.__.__.__.__.__.__.__.
 72
   65
 73
    6
 40
6.6675
 49
1.905
 74
    0
 49
-0.9525
 74
    0
 49
1.905
 74
    0
 49
-0.9525
 74
    0
 49
0
 74
    0
 49
-0.9525
 74
    0
  0
LTYPE
  5
44
330
5
100
AcDbSymbolTableRecord
100
AcDbLinetypeTableRecord
  2
BORDER2
 70
    0
  3
Border (.5x) __.__.__.__.__.__.__.__.__.__.__.
 72
   65
 73
    6
 40
22.225
 49
6.35
 74
    0
 49
-3.175
 74
    0
 49
6.35
 74
    0
 49
-3.175
 74
    0
 49
0
 74
    0
 49
-3.175
 74
    0
  0
LTYPE
  5
45
330
5
100
AcDbSymbolTableRecord
100
AcDbLinetypeTableRecord
  2
BORDERX2
 70
    0
  3
Border (2x) ____  ____  .  ____  ____  .  ___
 72
   65
 73
    6
 40
88.89999999999999
 49
25.4
 74
    0
 49
-12.7
 74
    0
 49
25.4
 74
    0
 49
-12.7
 74
    0
 49
0
 74
    0
 49
-12.7
 74
    0
  0
LTYPE
  5
46
330
5
100
AcDbSymbolTableRecord
100
AcDbLinetypeTableRecord
  2
CENTER
 70
    0
  3
Center ____ _ ____ _ ____ _ ____ _ ____ _ ____
 72
   65
 73
    4
 40
50.8
 49
31.75
 74
    0
 49
-6.35
 74
    0
 49
6.35
 74
    0
 49
-6.35
 74
    0
  0
LTYPE
  5
47
330
5
100
AcDbSymbolTableRecord
100
AcDbLinetypeTableRecord
  2
CENTERTINY
 70
    0
  3
Center (.15x) ___ _ ___ _ ___ _ ___ _ ___ _ ___
 72
   65
 73
    4
 40
7.619999999999999
 49
4.7625
 74
    0
 49
-0.9525
 74
    0
 49
0.9525
 74
    0
 49
-0.9525
 74
    0
  0
LTYPE
  5
48
330
5
100
AcDbSymbolTableRecord
100
AcDbLinetypeTableRecord
  2
CENTER2
 70
    0
  3
Center (.5x) ___ _ ___ _ ___ _ ___ _ ___ _ ___
 72
   65
 73
    4
 40
28.575
 49
19.05
 74
    0
 49
-3.175
 74
    0
 49
3.175
 74
    0
 49
-3.175
 74
    0
  0
LTYPE
  5
49
330
5
100
AcDbSymbolTableRecord
100
AcDbLinetypeTableRecord
  2
CENTERX2
 70
    0
  3
Center (2x) ________  __  ________  __  _____
 72
   65
 73
    4
 40
101.6
 49
63.5
 74
    0
 49
-12.7
 74
    0
 49
12.7
 74
    0
 49
-12.7
 74
    0
  0
ENDTAB
  0
TABLE
  2
LAYER
  5
2
330
0
100
AcDbSymbolTable
 70
    1
  0
LAYER
  5
10
330
2
100
AcDbSymbolTableRecord
100
AcDbLayerTableRecord
  2
0
 70
    1
 62
    7
  6
CONTINUOUS
370
    0
390
F
  0
LAYER
  5
4A
330
2
100
AcDbSymbolTableRecord
100
AcDbLayerTableRecord
  2
dimensions_lin
 70
    0
 62
    5
  6
CONTINUOUS
370
   13
390
F
  0
LAYER
  5
4B
330
2
100
AcDbSymbolTableRecord
100
AcDbLayerTableRecord
  2
dimensions_rad
 70
    0
 62
   20
420
15673641
  6
CONTINUOUS
370
    0
390
F
  0
LAYER
  5
4C
330
2
100
AcDbSymbolTableRecord
100
AcDbLayerTableRecord
  2
drawing
 70
    0
 62
    7
  6
CONTINUOUS
370
   18
390
F
  0
LAYER
  5
4D
330
2
100
AcDbSymbolTableRecord
100
AcDbLayerTableRecord
  2
help
 70
    1
 62
    9
  6
DASHED2
370
    0
390
F
  0
ENDTAB
  0
TABLE
  2
STYLE
  5
3
330
0
100
AcDbSymbolTable
 70
    3
  0
STYLE
  5
4E
330
2
100
AcDbSymbolTableRecord
100
AcDbTextStyleTableRecord
  2
Standard
 70
    0
 40
0
 41
1
 50
0
 71
    0
 42
1
  3
txt
  4

  0
ENDTAB
  0
TABLE
  2
VIEW
  5
6
330
0
100
AcDbSymbolTable
 70
    0
  0
ENDTAB
  0
TABLE
  2
UCS
  5
7
330
0
100
AcDbSymbolTable
 70
    0
  0
ENDTAB
  0
TABLE
  2
APPID
  5
9
330
0
100
AcDbSymbolTable
 70
    1
  0
APPID
  5
12
330
9
100
AcDbSymbolTableRecord
100
AcDbRegAppTableRecord
  2
ACAD
 70
    0
  0
APPID
  5
4F
330
9
100
AcDbSymbolTableRecord
100
AcDbRegAppTableRecord
  2
LibreCad
 70
    0
  0
ENDTAB
  0
TABLE
  2
DIMSTYLE
  5
A
330
0
100
AcDbSymbolTable
 70
    1
100
AcDbDimStyleTable
 71
    1
  0
DIMSTYLE
105
50
330
A
100
AcDbSymbolTableRecord
100
AcDbDimStyleTableRecord
  2
Standard
 70
    0
 40
2.5
 41
2.5
 42
0.625
 43
0.38
 44
1.25
 45
0
 46
0
 47
0
 48
0
 49
1
140
2.5
141
0.09
142
0
143
25.4
144
1
145
0
146
1
147
0.625
148
0
 71
    0
 72
    0
 73
    0
 74
    1
 75
    0
 76
    0
 77
    0
 78
    8
 79
    0
170
    0
171
    2
172
    0
173
    0
174
    0
175
    0
176
    0
177
    0
178
    0
179
    0
271
    4
272
    4
273
    2
274
    2
275
    0
276
    0
277
    2
278
   44
279
    0
280
    0
281
    0
282
    0
283
    1
284
    0
285
    0
286
    0
288
    0
289
    3
340
STANDARD
341

371
   -2
372
   -2
  0
ENDTAB
  0
TABLE
  2
BLOCK_RECORD
  5
1
330
0
100
AcDbSymbolTable
 70
    2
  0
BLOCK_RECORD
  5
1F
330
1
100
AcDbSymbolTableRecord
100
AcDbBlockTableRecord
  2
*Model_Space
 70
    0
280
    1
281
    0
  0
BLOCK_RECORD
  5
1E
330
1
100
AcDbSymbolTableRecord
100
AcDbBlockTableRecord
  2
*Paper_Space
 70
    0
280
    1
281
    0
  0
BLOCK_RECORD
  5
51
330
1
100
AcDbSymbolTableRecord
100
AcDbBlockTableRecord
  2
*D11
 70
    0
280
    1
281
    0
  0
BLOCK_RECORD
  5
54
330
1
100
AcDbSymbolTableRecord
100
AcDbBlockTableRecord
  2
*D9
 70
    0
280
    1
281
    0
  0
BLOCK_RECORD
  5
57
330
1
100
AcDbSymbolTableRecord
100
AcDbBlockTableRecord
  2
*D12
 70
    0
280
    1
281
    0
  0
BLOCK_RECORD
  5
5A
330
1
100
AcDbSymbolTableRecord
100
AcDbBlockTableRecord
  2
*D13
 70
    0
280
    1
281
    0
  0
BLOCK_RECORD
  5
5D
330
1
100
AcDbSymbolTableRecord
100
AcDbBlockTableRecord
  2
*D15
 70
    0
280
    1
281
    0
  0
BLOCK_RECORD
  5
60
330
1
100
AcDbSymbolTableRecord
100
AcDbBlockTableRecord
  2
*D7
 70
    0
280
    1
281
    0
  0
BLOCK_RECORD
  5
63
330
1
100
AcDbSymbolTableRecord
100
AcDbBlockTableRecord
  2
*D1
 70
    0
280
    1
281
    0
  0
BLOCK_RECORD
  5
66
330
1
100
AcDbSymbolTableRecord
100
AcDbBlockTableRecord
  2
*D10
 70
    0
280
    1
281
    0
  0
BLOCK_RECORD
  5
69
330
1
100
AcDbSymbolTableRecord
100
AcDbBlockTableRecord
  2
*D4
 70
    0
280
    1
281
    0
  0
BLOCK_RECORD
  5
6C
330
1
100
AcDbSymbolTableRecord
100
AcDbBlockTableRecord
  2
*D16
 70
    0
280
    1
281
    0
  0
BLOCK_RECORD
  5
6F
330
1
100
AcDbSymbolTableRecord
100
AcDbBlockTableRecord
  2
*D5
 70
    0
280
    1
281
    0
  0
BLOCK_RECORD
  5
72
330
1
100
AcDbSymbolTableRecord
100
AcDbBlockTableRecord
  2
*D2
 70
    0
280
    1
281
    0
  0
BLOCK_RECORD
  5
75
330
1
100
AcDbSymbolTableRecord
100
AcDbBlockTableRecord
  2
*D3
 70
    0
280
    1
281
    0
  0
BLOCK_RECORD
  5
78
330
1
100
AcDbSymbolTableRecord
100
AcDbBlockTableRecord
  2
*D8
 70
    0
280
    1
281
    0
  0
BLOCK_RECORD
  5
7B
330
1
100
AcDbSymbolTableRecord
100
AcDbBlockTableRecord
  2
*D14
 70
    0
280
    1
281
    0
  0
BLOCK_RECORD
  5
7E
330
1
100
AcDbSymbolTableRecord
100
AcDbBlockTableRecord
  2
*D6
 70
    0
280
    1
281
    0
  0
ENDTAB
  0
ENDSEC
  0
SECTION
  2
BLOCKS
  0
BLOCK
  5
20
330
1F
100
AcDbEntity
  8
0
100
AcDbBlockBegin
  2
*Model_Space
 70
    0
 10
0
 20
0
 30
0
  3
*Model_Space
  1

  0
ENDBLK
  5
21
330
1F
100
AcDbEntity
  8
0
100
AcDbBlockEnd
  0
BLOCK
  5
1C
330
1B
100
AcDbEntity
  8
0
100
AcDbBlockBegin
  2
*Paper_Space
 70
    0
 10
0
 20
0
 30
0
  3
*Paper_Space
  1

  0
ENDBLK
  5
1D
330
1F
100
AcDbEntity
  8
0
100
AcDbBlockEnd
  0
BLOCK
  5
52
330
51
100
AcDbEntity
  8
0
100
AcDbBlockBegin
  2
*D11
 70
    1
 10
0
 20
0
  3
*D11
  1

  0
SOLID
  5
81
100
AcDbEntity
  8
dimensions_rad
  6
ByBlock
 62
    0
370
   -2
100
AcDbTrace
 10
-15.9021397547779
 20
1.766904417197543
 30
0
 11
-22.22884047158652
 21
1.422755079278831
 31
0
 12
-21.99898572138952
 22
3.491447831051832
 32
0
 13
-21.99898572138952
 23
3.491447831051832
 33
0
  0
LINE
  5
82
100
AcDbEntity
  8
dimensions_rad
  6
ByBlock
 62
    0
370
   -2
100
AcDbLine
 10
0
 20
0
 11
-34.53745977990864
 21
3.837495531100957
  0
MTEXT
  5
83
100
AcDbEntity
  8
dimensions_rad
  6
CONTINUOUS
 62
    0
370
   -2
100
AcDbMText
 10
-24.70215198886743
 20
7.461029980431839
 30
0
 40
6.25
 41
6.250000000000387
 71
    5
 72
    1
  1
16
  7
STANDARD
210
0
220
0
230
1
 50
353.6598082540901
 73
    2
 44
1
  0
ENDBLK
  5
53
330
51
100
AcDbEntity
  8
0
100
AcDbBlockEnd
  0
BLOCK
  5
55
330
54
100
AcDbEntity
  8
0
100
AcDbBlockBegin
  2
*D9
 70
    1
 10
0
 20
0
  3
*D9
  1

  0
SOLID
  5
84
100
AcDbEntity
  8
dimensions_rad
  6
ByBlock
 62
    0
370
   -2
100
AcDbTrace
 10
30.82307802564967
 20
-8.598712753936622
 30
0
 11
24.52329620844782
 21
-7.921712176012527
 31
0
 12
25.08259498908211
 22
-5.916841162354224
 32
0
 13
25.08259498908211
 23
-5.916841162354224
 33
0
  0
LINE
  5
85
100
AcDbEntity
  8
dimensions_rad
  6
ByBlock
 62
    0
370
   -2
100
AcDbLine
 10
-1.06581410364015e-14
 20
3.552713678800501e-15
 11
30.82307802564967
 21
-8.598712753936622
  0
MTEXT
  5
86
100
AcDbEntity
  8
dimensions_rad
  6
CONTINUOUS
 62
    0
370
   -2
100
AcDbMText
 10
16.67111607638977
 20
0.2157429431952167
 30
0
 40
6.25
 41
7.638888888889277
 71
    5
 72
    1
  1
32
  7
STANDARD
210
0
220
0
230
1
 50
344.4124947167526
 73
    2
 44
1
  0
ENDBLK
  5
56
330
54
100
AcDbEntity
  8
0
100
AcDbBlockEnd
  0
BLOCK
  5
58
330
57
100
AcDbEntity
  8
0
100
AcDbBlockBegin
  2
*D12
 70
    1
 10
0
 20
0
  3
*D12
  1

  0
SOLID
  5
87
100
AcDbEntity
  8
dimensions_rad
  6
ByBlock
 62
    0
370
   -2
100
AcDbTrace
 10
-66.5492352429625
 20
-72.92759888274266
 30
0
 11
-62.26452964407213
 21
-68.25995722365035
 31
0
 12
-60.98320557818472
 22
-69.90024120686911
 32
0
 13
-60.98320557818472
 23
-69.90024120686911
 33
0
  0
LINE
  5
88
100
AcDbEntity
  8
dimensions_rad
  6
ByBlock
 62
    0
370
   -2
100
AcDbLine
 10
-50
 20
-60
 11
-66.5492352429625
 21
-72.92759888274266
  0
MTEXT
  5
89
100
AcDbEntity
  8
dimensions_rad
  6
CONTINUOUS
 62
    0
370
   -2
100
AcDbMText
 10
-61.16024237209344
 20
-62.76977371749577
 30
0
 40
6.25
 41
6.25
 71
    5
 72
    1
  1
21
  7
STANDARD
210
0
220
0
230
1
 50
37.99552643480823
 73
    2
 44
1
  0
ENDBLK
  5
59
330
57
100
AcDbEntity
  8
0
100
AcDbBlockEnd
  0
BLOCK
  5
5B
330
5A
100
AcDbEntity
  8
0
100
AcDbBlockBegin
  2
*D13
 70
    1
 10
0
 20
0
  3
*D13
  1

  0
LINE
  5
8A
100
AcDbEntity
  8
dimensions_lin
  6
ByBlock
 62
    0
370
   -2
100
AcDbLine
 10
-15.50000000000002
 20
-54.71175312544085
 11
15.5
 21
-54.71175312544085
  0
MTEXT
  5
8B
100
AcDbEntity
  8
dimensions_lin
  6
CONTINUOUS
 62
    0
370
   -2
100
AcDbMText
 10
-9.704980628076248e-15
 20
-50.02425312544085
 30
0
 40
6.25
 41
2.777777777778165
 71
    5
 72
    1
  1
6
  7
STANDARD
210
0
220
0
230
1
 50
0
 73
    2
 44
1
  0
SOLID
  5
8C
100
AcDbEntity
  8
dimensions_lin
  6
ByBlock
 62
    0
370
   -2
100
AcDbTrace
 10
-3.000000000000019
 20
-54.71175312544085
 30
0
 11
-9.250000000000018
 21
-55.75246476987295
 31
0
 12
-9.250000000000018
 22
-53.67104148100875
 32
0
 13
-9.250000000000018
 23
-53.67104148100875
 33
0
  0
SOLID
  5
8D
100
AcDbEntity
  8
dimensions_lin
  6
ByBlock
 62
    0
370
   -2
100
AcDbTrace
 10
2.999999999999999
 20
-54.71175312544085
 30
0
 11
9.249999999999998
 21
-53.67104148100875
 31
0
 12
9.249999999999998
 22
-55.75246476987295
 32
0
 13
9.249999999999998
 23
-55.75246476987295
 33
0
  0
LINE
  5
8E
100
AcDbEntity
  8
dimensions_lin
  6
ByBlock
 62
    0
370
   -2
100
AcDbLine
 10
-3.000000000000019
 20
-33.42156464414798
 11
-3.000000000000019
 21
-57.83675312544085
  0
LINE
  5
8F
100
AcDbEntity
  8
dimensions_lin
  6
ByBlock
 62
    0
370
   -2
100
AcDbLine
 10
2.999999999999998
 20
-33.42156464414798
 11
2.999999999999998
 21
-57.83675312544085
  0
ENDBLK
  5
5C
330
5A
100
AcDbEntity
  8
0
100
AcDbBlockEnd
  0
BLOCK
  5
5E
330
5D
100
AcDbEntity
  8
0
100
AcDbBlockBegin
  2
*D15
 70
    1
 10
0
 20
0
  3
*D15
  1

  0
LINE
  5
90
100
AcDbEntity
  8
dimensions_lin
  6
ByBlock
 62
    0
370
   -2
100
AcDbLine
 10
-50
 20
90
 11
2.176037128265307e-14
 21
90
  0
MTEXT
  5
91
100
AcDbEntity
  8
dimensions_lin
  6
CONTINUOUS
 62
    0
370
   -2
100
AcDbMText
 10
-24.99999999999999
 20
94.6875
 30
0
 40
6.25
 41
7.638888888889277
 71
    5
 72
    1
  1
50
  7
STANDARD
210
0
220
0
230
1
 50
0
 73
    2
 44
1
  0
SOLID
  5
92
100
AcDbEntity
  8
dimensions_lin
  6
ByBlock
 62
    0
370
   -2
100
AcDbTrace
 10
-50
 20
90
 30
0
 11
-43.75
 21
91.04071164443209
 31
0
 12
-43.75
 22
88.95928835556789
 32
0
 13
-43.75
 23
88.95928835556789
 33
0
  0
SOLID
  5
93
100
AcDbEntity
  8
dimensions_lin
  6
ByBlock
 62
    0
370
   -2
100
AcDbTrace
 10
2.176037128265307e-14
 20
90
 30
0
 11
-6.249999999999979
 21
88.95928835556789
 31
0
 12
-6.249999999999979
 22
91.04071164443211
 32
0
 13
-6.249999999999979
 23
91.04071164443211
 33
0
  0
LINE
  5
94
100
AcDbEntity
  8
dimensions_lin
  6
ByBlock
 62
    0
370
   -2
100
AcDbLine
 10
-50
 20
61.5625
 11
-50
 21
93.125
  0
LINE
  5
95
100
AcDbEntity
  8
dimensions_lin
  6
ByBlock
 62
    0
370
   -2
100
AcDbLine
 10
2.185604681383646e-14
 20
1.562500000000032
 11
2.195172234501984e-14
 21
93.125
  0
ENDBLK
  5
5F
330
5D
100
AcDbEntity
  8
0
100
AcDbBlockEnd
  0
BLOCK
  5
61
330
60
100
AcDbEntity
  8
0
100
AcDbBlockBegin
  2
*D7
 70
    1
 10
0
 20
0
  3
*D7
  1

  0
SOLID
  5
96
100
AcDbEntity
  8
dimensions_rad
  6
ByBlock
 62
    0
370
   -2
100
AcDbTrace
 10
-54.27807086389308
 20
12.3620768578436
 30
0
 11
-50.00823587562579
 21
17.04332561216387
 31
0
 12
-48.72170014209355
 22
15.40712613967559
 32
0
 13
-48.72170014209355
 23
15.40712613967559
 33
0
  0
LINE
  5
97
100
AcDbEntity
  8
dimensions_rad
  6
ByBlock
 62
    0
370
   -2
100
AcDbLine
 10
-70
 20
0
 11
-38.44696166434099
 21
24.81000147164445
  0
MTEXT
  5
98
100
AcDbEntity
  8
dimensions_rad
  6
CONTINUOUS
 62
    0
370
   -2
100
AcDbMText
 10
-49.25987802767413
 20
22.27086630601909
 30
0
 40
6.25
 41
7.638888888888888
 71
    5
 72
    1
  1
20
  7
STANDARD
210
0
220
0
230
1
 50
38.17779886955537
 73
    2
 44
1
  0
ENDBLK
  5
62
330
60
100
AcDbEntity
  8
0
100
AcDbBlockEnd
  0
BLOCK
  5
64
330
63
100
AcDbEntity
  8
0
100
AcDbBlockBegin
  2
*D1
 70
    1
 10
0
 20
0
  3
*D1
  1

  0
LINE
  5
99
100
AcDbEntity
  8
dimensions_lin
  6
ByBlock
 62
    0
370
   -2
100
AcDbLine
 10
0
 20
110
 11
70
 21
110
  0
MTEXT
  5
9A
100
AcDbEntity
  8
dimensions_lin
  6
CONTINUOUS
 62
    0
370
   -2
100
AcDbMText
 10
35
 20
114.6875
 30
0
 40
6.25
 41
7.638888888888888
 71
    5
 72
    1
  1
70
  7
STANDARD
210
0
220
0
230
1
 50
0
 73
    2
 44
1
  0
SOLID
  5
9B
100
AcDbEntity
  8
dimensions_lin
  6
ByBlock
 62
    0
370
   -2
100
AcDbTrace
 10
0
 20
110
 30
0
 11
6.25
 21
111.0407116444321
 31
0
 12
6.25
 22
108.9592883555679
 32
0
 13
6.25
 23
108.9592883555679
 33
0
  0
SOLID
  5
9C
100
AcDbEntity
  8
dimensions_lin
  6
ByBlock
 62
    0
370
   -2
100
AcDbTrace
 10
70
 20
110
 30
0
 11
63.75
 21
108.9592883555679
 31
0
 12
63.75
 22
111.0407116444321
 32
0
 13
63.75
 23
111.0407116444321
 33
0
  0
LINE
  5
9D
100
AcDbEntity
  8
dimensions_lin
  6
ByBlock
 62
    0
370
   -2
100
AcDbLine
 10
9.567553118338697e-17
 20
1.5625
 11
1.913510623667739e-16
 21
113.125
  0
LINE
  5
9E
100
AcDbEntity
  8
dimensions_lin
  6
ByBlock
 62
    0
370
   -2
100
AcDbLine
 10
70
 20
1.5625
 11
70
 21
113.125
  0
ENDBLK
  5
65
330
63
100
AcDbEntity
  8
0
100
AcDbBlockEnd
  0
BLOCK
  5
67
330
66
100
AcDbEntity
  8
0
100
AcDbBlockBegin
  2
*D10
 70
    1
 10
0
 20
0
  3
*D10
  1

  0
SOLID
  5
9F
100
AcDbEntity
  8
dimensions_rad
  6
ByBlock
 62
    0
370
   -2
100
AcDbTrace
 10
14.40053731312925
 20
15.28478083235649
 30
0
 11
10.87214165540393
 21
10.02208144806694
 31
0
 12
9.357184570182405
 22
11.44939638786242
 32
0
 13
9.357184570182405
 23
11.44939638786242
 33
0
  0
LINE
  5
A0
100
AcDbEntity
  8
dimensions_rad
  6
ByBlock
 62
    0
370
   -2
100
AcDbLine
 10
-1.4210854715202e-14
 20
3.552713678800501e-15
 11
14.40053731312925
 21
15.28478083235649
  0
MTEXT
  5
A1
100
AcDbEntity
  8
dimensions_rad
  6
CONTINUOUS
 62
    0
370
   -2
100
AcDbMText
 10
3.788487220770763
 20
10.85679606643031
 30
0
 40
6.25
 41
6.25
 71
    5
 72
    1
  1
21
  7
STANDARD
210
0
220
0
230
1
 50
46.70617829444696
 73
    2
 44
1
  0
ENDBLK
  5
68
330
66
100
AcDbEntity
  8
0
100
AcDbBlockEnd
  0
BLOCK
  5
6A
330
69
100
AcDbEntity
  8
0
100
AcDbBlockBegin
  2
*D4
 70
    1
 10
0
 20
0
  3
*D4
  1

  0
LINE
  5
A2
100
AcDbEntity
  8
dimensions_lin
  6
ByBlock
 62
    0
370
   -2
100
AcDbLine
 10
-120
 20
-7.105427357601002e-15
 11
-120
 21
60
  0
MTEXT
  5
A3
100
AcDbEntity
  8
dimensions_lin
  6
CONTINUOUS
 62
    0
370
   -2
100
AcDbMText
 10
-124.6875
 20
30
 30
0
 40
6.25
 41
7.638888888889277
 71
    5
 72
    1
  1
60
  7
STANDARD
210
0
220
0
230
1
 50
90
 73
    2
 44
1
  0
SOLID
  5
A4
100
AcDbEntity
  8
dimensions_lin
  6
ByBlock
 62
    0
370
   -2
100
AcDbTrace
 10
-120
 20
-7.105427357601002e-15
 30
0
 11
-121.0407116444321
 21
6.249999999999993
 31
0
 12
-118.9592883555679
 22
6.249999999999993
 32
0
 13
-118.9592883555679
 23
6.249999999999993
 33
0
  0
SOLID
  5
A5
100
AcDbEntity
  8
dimensions_lin
  6
ByBlock
 62
    0
370
   -2
100
AcDbTrace
 10
-120
 20
60
 30
0
 11
-118.9592883555679
 21
53.75
 31
0
 12
-121.0407116444321
 22
53.75
 32
0
 13
-121.0407116444321
 23
53.75
 33
0
  0
LINE
  5
A6
100
AcDbEntity
  8
dimensions_lin
  6
ByBlock
 62
    0
370
   -2
100
AcDbLine
 10
-1.5625
 20
1.913510623667739e-16
 11
-123.125
 21
-6.722725232867454e-15
  0
LINE
  5
A7
100
AcDbEntity
  8
dimensions_lin
  6
ByBlock
 62
    0
370
   -2
100
AcDbLine
 10
-61.5625
 20
60
 11
-123.125
 21
60
  0
ENDBLK
  5
6B
330
69
100
AcDbEntity
  8
0
100
AcDbBlockEnd
  0
BLOCK
  5
6D
330
6C
100
AcDbEntity
  8
0
100
AcDbBlockBegin
  2
*D16
 70
    1
 10
0
 20
0
  3
*D16
  1

  0
SOLID
  5
A8
100
AcDbEntity
  8
dimensions_rad
  6
ByBlock
 62
    0
370
   -2
100
AcDbTrace
 10
31.98062024161197
 20
70.78433832569227
 30
0
 11
37.87797785889619
 21
68.4677127925695
 31
0
 12
36.80908390908253
 22
66.68171485542679
 32
0
 13
36.80908390908253
 23
66.68171485542679
 33
0
  0
LINE
  5
A9
100
AcDbEntity
  8
dimensions_rad
  6
ByBlock
 62
    0
370
   -2
100
AcDbLine
 10
50.00000000000001
 20
59.99999999999999
 11
31.98062024161197
 21
70.78433832569227
  0
MTEXT
  5
AA
100
AcDbEntity
  8
dimensions_rad
  6
CONTINUOUS
 62
    0
370
   -2
100
AcDbMText
 10
43.39752849707659
 20
69.41435214462918
 30
0
 40
6.25
 41
6.25
 71
    5
 72
    1
  1
21
  7
STANDARD
210
0
220
0
230
1
 50
329.1000889277077
 73
    2
 44
1
  0
ENDBLK
  5
6E
330
6C
100
AcDbEntity
  8
0
100
AcDbBlockEnd
  0
BLOCK
  5
70
330
6F
100
AcDbEntity
  8
0
100
AcDbBlockBegin
  2
*D5
 70
    1
 10
0
 20
0
  3
*D5
  1

  0
SOLID
  5
AB
100
AcDbEntity
  8
dimensions_rad
  6
ByBlock
 62
    0
370
   -2
100
AcDbTrace
 10
-42.70682014952777
 20
46.89238665245782
 30
0
 11
-38.75857882239763
 21
41.93688757067018
 31
0
 12
-40.57741160126439
 22
40.92487461129365
 32
0
 13
-40.57741160126439
 23
40.92487461129365
 33
0
  0
LINE
  5
AC
100
AcDbEntity
  8
dimensions_rad
  6
ByBlock
 62
    0
370
   -2
100
AcDbLine
 10
-50
 20
60
 11
-33.5903453364373
 21
30.50786996802976
  0
MTEXT
  5
AD
100
AcDbEntity
  8
dimensions_rad
  6
CONTINUOUS
 62
    0
370
   -2
100
AcDbMText
 10
-34.05245357187561
 20
40.97924701351636
 30
0
 40
6.25
 41
6.250000000000387
 71
    5
 72
    1
  1
15
  7
STANDARD
210
0
220
0
230
1
 50
299.0919092519612
 73
    2
 44
1
  0
ENDBLK
  5
71
330
6F
100
AcDbEntity
  8
0
100
AcDbBlockEnd
  0
BLOCK
  5
73
330
72
100
AcDbEntity
  8
0
100
AcDbBlockBegin
  2
*D2
 70
    1
 10
0
 20
0
  3
*D2
  1

  0
LINE
  5
AE
100
AcDbEntity
  8
dimensions_lin
  6
ByBlock
 62
    0
370
   -2
100
AcDbLine
 10
0
 20
110
 11
-70
 21
110
  0
MTEXT
  5
AF
100
AcDbEntity
  8
dimensions_lin
  6
CONTINUOUS
 62
    0
370
   -2
100
AcDbMText
 10
-35
 20
114.6875
 30
0
 40
6.25
 41
7.638888888888888
 71
    5
 72
    1
  1
70
  7
STANDARD
210
0
220
0
230
1
 50
0
 73
    2
 44
1
  0
SOLID
  5
B0
100
AcDbEntity
  8
dimensions_lin
  6
ByBlock
 62
    0
370
   -2
100
AcDbTrace
 10
0
 20
110
 30
0
 11
-6.25
 21
108.9592883555679
 31
0
 12
-6.25
 22
111.0407116444321
 32
0
 13
-6.25
 23
111.0407116444321
 33
0
  0
SOLID
  5
B1
100
AcDbEntity
  8
dimensions_lin
  6
ByBlock
 62
    0
370
   -2
100
AcDbTrace
 10
-70
 20
110
 30
0
 11
-63.75
 21
111.0407116444321
 31
0
 12
-63.75
 22
108.9592883555679
 32
0
 13
-63.75
 23
108.9592883555679
 33
0
  0
LINE
  5
B2
100
AcDbEntity
  8
dimensions_lin
  6
ByBlock
 62
    0
370
   -2
100
AcDbLine
 10
9.567553118338697e-17
 20
1.5625
 11
1.913510623667739e-16
 21
113.125
  0
LINE
  5
B3
100
AcDbEntity
  8
dimensions_lin
  6
ByBlock
 62
    0
370
   -2
100
AcDbLine
 10
-70
 20
1.5625
 11
-70
 21
113.125
  0
ENDBLK
  5
74
330
72
100
AcDbEntity
  8
0
100
AcDbBlockEnd
  0
BLOCK
  5
76
330
75
100
AcDbEntity
  8
0
100
AcDbBlockBegin
  2
*D3
 70
    1
 10
0
 20
0
  3
*D3
  1

  0
LINE
  5
B4
100
AcDbEntity
  8
dimensions_lin
  6
ByBlock
 62
    0
370
   -2
100
AcDbLine
 10
-120
 20
-7.105427357601002e-15
 11
-120
 21
-60
  0
MTEXT
  5
B5
100
AcDbEntity
  8
dimensions_lin
  6
CONTINUOUS
 62
    0
370
   -2
100
AcDbMText
 10
-124.6875
 20
-30
 30
0
 40
6.25
 41
7.638888888889277
 71
    5
 72
    1
  1
60
  7
STANDARD
210
0
220
0
230
1
 50
90
 73
    2
 44
1
  0
SOLID
  5
B6
100
AcDbEntity
  8
dimensions_lin
  6
ByBlock
 62
    0
370
   -2
100
AcDbTrace
 10
-120
 20
-7.105427357601002e-15
 30
0
 11
-118.9592883555679
 21
-6.250000000000007
 31
0
 12
-121.0407116444321
 22
-6.250000000000007
 32
0
 13
-121.0407116444321
 23
-6.250000000000007
 33
0
  0
SOLID
  5
B7
100
AcDbEntity
  8
dimensions_lin
  6
ByBlock
 62
    0
370
   -2
100
AcDbTrace
 10
-120
 20
-60
 30
0
 11
-121.0407116444321
 21
-53.75
 31
0
 12
-118.9592883555679
 22
-53.75
 32
0
 13
-118.9592883555679
 23
-53.75
 33
0
  0
LINE
  5
B8
100
AcDbEntity
  8
dimensions_lin
  6
ByBlock
 62
    0
370
   -2
100
AcDbLine
 10
-1.5625
 20
1.913510623667739e-16
 11
-123.125
 21
-6.722725232867454e-15
  0
LINE
  5
B9
100
AcDbEntity
  8
dimensions_lin
  6
ByBlock
 62
    0
370
   -2
100
AcDbLine
 10
-61.5625
 20
-60
 11
-123.125
 21
-60
  0
ENDBLK
  5
77
330
75
100
AcDbEntity
  8
0
100
AcDbBlockEnd
  0
BLOCK
  5
79
330
78
100
AcDbEntity
  8
0
100
AcDbBlockBegin
  2
*D8
 70
    1
 10
0
 20
0
  3
*D8
  1

  0
SOLID
  5
BA
100
AcDbEntity
  8
dimensions_rad
  6
ByBlock
 62
    0
370
   -2
100
AcDbTrace
 10
16.72916780063204
 20
-36.33366131699771
 30
0
 11
13.16991372134699
 21
-31.09178272951123
 31
0
 12
15.06055694221958
 22
-30.22127074292241
 32
0
 13
15.06055694221958
 23
-30.22127074292241
 33
0
  0
LINE
  5
BB
100
AcDbEntity
  8
dimensions_rad
  6
ByBlock
 62
    0
370
   -2
100
AcDbLine
 10
0
 20
0
 11
16.72916780063204
 21
-36.33366131699771
  0
MTEXT
  5
BC
100
AcDbEntity
  8
dimensions_rad
  6
CONTINUOUS
 62
    0
370
   -2
100
AcDbMText
 10
12.62243483590169
 20
-16.20638130686229
 30
0
 40
6.25
 41
8.333333333333332
 71
    5
 72
    1
  1
40
  7
STANDARD
210
0
220
0
230
1
 50
294.7228395523105
 73
    2
 44
1
  0
ENDBLK
  5
7A
330
78
100
AcDbEntity
  8
0
100
AcDbBlockEnd
  0
BLOCK
  5
7C
330
7B
100
AcDbEntity
  8
0
100
AcDbBlockBegin
  2
*D14
 70
    1
 10
0
 20
0
  3
*D14
  1

  0
LINE
  5
BD
100
AcDbEntity
  8
dimensions_lin
  6
ByBlock
 62
    0
370
   -2
100
AcDbLine
 10
1.4210854715202e-14
 20
90
 11
50
 21
90
  0
MTEXT
  5
BE
100
AcDbEntity
  8
dimensions_lin
  6
CONTINUOUS
 62
    0
370
   -2
100
AcDbMText
 10
25.00000000000001
 20
94.6875
 30
0
 40
6.25
 41
7.638888888889277
 71
    5
 72
    1
  1
50
  7
STANDARD
210
0
220
0
230
1
 50
0
 73
    2
 44
1
  0
SOLID
  5
BF
100
AcDbEntity
  8
dimensions_lin
  6
ByBlock
 62
    0
370
   -2
100
AcDbTrace
 10
1.4210854715202e-14
 20
90
 30
0
 11
6.250000000000014
 21
91.04071164443209
 31
0
 12
6.250000000000014
 22
88.95928835556789
 32
0
 13
6.250000000000014
 23
88.95928835556789
 33
0
  0
SOLID
  5
C0
100
AcDbEntity
  8
dimensions_lin
  6
ByBlock
 62
    0
370
   -2
100
AcDbTrace
 10
50
 20
90
 30
0
 11
43.75
 21
88.95928835556789
 31
0
 12
43.75
 22
91.04071164443211
 32
0
 13
43.75
 23
91.04071164443211
 33
0
  0
LINE
  5
C1
100
AcDbEntity
  8
dimensions_lin
  6
ByBlock
 62
    0
370
   -2
100
AcDbLine
 10
2.150910211864109e-14
 20
1.562500000000032
 11
1.370831638717805e-14
 21
93.125
  0
LINE
  5
C2
100
AcDbEntity
  8
dimensions_lin
  6
ByBlock
 62
    0
370
   -2
100
AcDbLine
 10
50
 20
61.5625
 11
50
 21
93.125
  0
ENDBLK
  5
7D
330
7B
100
AcDbEntity
  8
0
100
AcDbBlockEnd
  0
BLOCK
  5
7F
330
7E
100
AcDbEntity
  8
0
100
AcDbBlockBegin
  2
*D6
 70
    1
 10
0
 20
0
  3
*D6
  1

  0
SOLID
  5
C3
100
AcDbEntity
  8
dimensions_rad
  6
ByBlock
 62
    0
370
   -2
100
AcDbTrace
 10
-62.28581295371397
 20
12.86434289868366
 30
0
 11
-59.96410644793662
 21
18.759702058895
 31
0
 12
-58.17903025425296
 22
17.68926948737538
 32
0
 13
-58.17903025425296
 23
17.68926948737538
 33
0
  0
LINE
  5
C4
100
AcDbEntity
  8
dimensions_rad
  6
ByBlock
 62
    0
370
   -2
100
AcDbLine
 10
-70
 20
0
 11
-52.64307914585623
 21
28.94477152203858
  0
MTEXT
  5
C5
100
AcDbEntity
  8
dimensions_rad
  6
CONTINUOUS
 62
    0
370
   -2
100
AcDbMText
 10
-61.48455320562375
 20
23.3152406623255
 30
0
 40
6.25
 41
6.250000000000387
 71
    5
 72
    1
  1
15
  7
STANDARD
210
0
220
0
230
1
 50
59.05071637405325
 73
    2
 44
1
  0
ENDBLK
  5
80
330
7E
100
AcDbEntity
  8
0
100
AcDbBlockEnd
  0
ENDSEC
  0
SECTION
  2
ENTITIES
  0
CIRCLE
  5
C6
100
AcDbEntity
  8
drawing
  6
ByLayer
 62
  256
370
   -1
100
AcDbCircle
 10
0
 20
0
 40
40
  0
LINE
  5
C7
100
AcDbEntity
  8
help
  6
ByLayer
 62
  256
370
   -1
100
AcDbLine
 10
0
 20
0
 11
50
 21
0
  0
LINE
  5
C8
100
AcDbEntity
  8
help
  6
ByLayer
 62
  256
370
   -1
100
AcDbLine
 10
0
 20
0
 11
-50
 21
0
  0
LINE
  5
C9
100
AcDbEntity
  8
help
  6
ByLayer
 62
  256
370
   -1
100
AcDbLine
 10
50
 20
0
 11
70
 21
0
  0
LINE
  5
CA
100
AcDbEntity
  8
help
  6
ByLayer
 62
  256
370
   -1
100
AcDbLine
 10
-50
 20
0
 11
-70
 21
0
  0
CIRCLE
  5
CB
100
AcDbEntity
  8
drawing
  6
ByLayer
 62
  256
370
   -1
100
AcDbCircle
 10
-70
 20
0
 40
15
  0
CIRCLE
  5
CC
100
AcDbEntity
  8
drawing
  6
ByLayer
 62
  256
370
   -1
100
AcDbCircle
 10
70
 20
0
 40
15
  0
CIRCLE
  5
CD
100
AcDbEntity
  8
drawing
  6
ByLayer
 62
  256
370
   -1
100
AcDbCircle
 10
-70
 20
0
 40
20
  0
CIRCLE
  5
CE
100
AcDbEntity
  8
drawing
  6
ByLayer
 62
  256
370
   -1
100
AcDbCircle
 10
70
 20
-1.4210854715202e-14
 40
20
  0
CIRCLE
  5
CF
100
AcDbEntity
  8
help
  6
ByLayer
 62
  256
370
   -1
100
AcDbCircle
 10
0
 20
0
 40
21
  0
DIMENSION
  5
D0
100
AcDbEntity
  8
dimensions_lin
  6
ByLayer
 62
  256
370
   -1
100
AcDbDimension
  2
*D1
 10
70
 20
110
 30
0
 11
35
 21
114.6875
 31
0
 70
   32
 71
    5
  3
Standard
 53
0
210
0
220
0
230
1
100
AcDbAlignedDimension
 13
0
 23
0
 33
0
 14
70
 24
0
 34
0
100
AcDbRotatedDimension
  0
DIMENSION
  5
D1
100
AcDbEntity
  8
dimensions_lin
  6
ByLayer
 62
  256
370
   -1
100
AcDbDimension
  2
*D2
 10
-70
 20
110
 30
0
 11
-35
 21
114.6875
 31
0
 70
   32
 71
    5
  3
Standard
 53
0
210
0
220
0
230
1
100
AcDbAlignedDimension
 13
0
 23
0
 33
0
 14
-70
 24
0
 34
0
100
AcDbRotatedDimension
  0
DIMENSION
  5
D2
100
AcDbEntity
  8
dimensions_lin
  6
ByLayer
 62
  256
370
   -1
100
AcDbDimension
  2
*D3
 10
-120
 20
-59.99999999999999
 30
0
 11
-124.6875
 21
-30
 31
0
 70
   32
 71
    5
  3
Standard
 53
0
210
0
220
0
230
1
100
AcDbAlignedDimension
 13
0
 23
0
 33
0
 14
-60
 24
-60
 34
0
 50
90
100
AcDbRotatedDimension
  0
DIMENSION
  5
D3
100
AcDbEntity
  8
dimensions_lin
  6
ByLayer
 62
  256
370
   -1
100
AcDbDimension
  2
*D4
 10
-120
 20
60.00000000000001
 30
0
 11
-124.6875
 21
30
 31
0
 70
   32
 71
    5
  3
Standard
 53
0
210
0
220
0
230
1
100
AcDbAlignedDimension
 13
0
 23
0
 33
0
 14
-60
 24
60
 34
0
 50
90
100
AcDbRotatedDimension
  0
LINE
  5
D4
100
AcDbEntity
  8
help
  6
ByLayer
 62
  256
370
   -1
100
AcDbLine
 10
50
 20
-60
 11
-50
 21
-60
  0
CIRCLE
  5
D5
100
AcDbEntity
  8
drawing
  6
ByLayer
 62
  256
370
   -1
100
AcDbCircle
 10
50
 20
60
 40
15
  0
CIRCLE
  5
D6
100
AcDbEntity
  8
drawing
  6
ByLayer
 62
  256
370
   -1
100
AcDbCircle
 10
50
 20
-60
 40
15
  0
CIRCLE
  5
D7
100
AcDbEntity
  8
drawing
  6
ByLayer
 62
  256
370
   -1
100
AcDbCircle
 10
-49.99999999999999
 20
-60
 40
15
  0
CIRCLE
  5
D8
100
AcDbEntity
  8
drawing
  6
ByLayer
 62
  256
370
   -1
100
AcDbCircle
 10
-50
 20
60
 40
15
  0
LINE
  5
D9
100
AcDbEntity
  8
help
  6
ByLayer
 62
  256
370
   -1
100
AcDbLine
 10
50
 20
60
 11
90
 21
60
  0
LINE
  5
DA
100
AcDbEntity
  8
help
  6
ByLayer
 62
  256
370
   -1
100
AcDbLine
 10
50
 20
-60
 11
90
 21
-60
  0
LINE
  5
DB
100
AcDbEntity
  8
help
  6
ByLayer
 62
  256
370
   -1
100
AcDbLine
 10
-50
 20
60
 11
-90
 21
60
  0
LINE
  5
DC
100
AcDbEntity
  8
help
  6
ByLayer
 62
  256
370
   -1
100
AcDbLine
 10
-50
 20
-60
 11
-90
 21
-60
  0
LINE
  5
DD
100
AcDbEntity
  8
drawing
  6
ByLayer
 62
  256
370
   -1
100
AcDbLine
 10
88.96496994365873
 20
6.35058383427233
 11
71.00000000000003
 21
60
  0
LINE
  5
DE
100
AcDbEntity
  8
drawing
  6
ByLayer
 62
  256
370
   -1
100
AcDbLine
 10
88.96496994365873
 20
-6.35058383427237
 11
71
 21
-60.00000000000001
  0
LINE
  5
DF
100
AcDbEntity
  8
drawing
  6
ByLayer
 62
  256
370
   -1
100
AcDbLine
 10
-88.96496994365873
 20
-6.350583834272346
 11
-71.00000000000003
 21
-60
  0
LINE
  5
E0
100
AcDbEntity
  8
drawing
  6
ByLayer
 62
  256
370
   -1
100
AcDbLine
 10
-88.96496994365872
 20
6.350583834272364
 11
-70.99999999999997
 21
60
  0
CIRCLE
  5
E1
100
AcDbEntity
  8
help
  6
ByLayer
 62
  256
370
   -1
100
AcDbCircle
 10
-50
 20
60
 40
21
  0
CIRCLE
  5
E2
100
AcDbEntity
  8
help
  6
ByLayer
 62
  256
370
   -1
100
AcDbCircle
 10
50
 20
60
 40
21
  0
CIRCLE
  5
E3
100
AcDbEntity
  8
help
  6
ByLayer
 62
  256
370
   -1
100
AcDbCircle
 10
50
 20
-60
 40
21
  0
CIRCLE
  5
E4
100
AcDbEntity
  8
help
  6
ByLayer
 62
  256
370
   -1
100
AcDbCircle
 10
-8.002661075171357
 20
60.4727824373572
 40
21
  0
CIRCLE
  5
E5
100
AcDbEntity
  8
help
  6
ByLayer
 62
  256
370
   -1
100
AcDbCircle
 10
8.002661075171357
 20
60.4727824373572
 40
21
  0
CIRCLE
  5
E6
100
AcDbEntity
  8
help
  6
ByLayer
 62
  256
370
   -1
100
AcDbCircle
 10
8.002661075171357
 20
-60.4727824373572
 40
21
  0
CIRCLE
  5
E7
100
AcDbEntity
  8
help
  6
ByLayer
 62
  256
370
   -1
100
AcDbCircle
 10
-8.002661075171357
 20
-60.4727824373572
 40
21
  0
ARC
  5
E8
100
AcDbEntity
  8
drawing
  6
ByLayer
 62
  256
370
   -1
100
AcDbCircle
 10
50.00000000000001
 20
59.99999999999999
 40
21.00000000000001
100
AcDbArc
 50
5.088887490341627e-14
 51
180
  0
ARC
  5
E9
100
AcDbEntity
  8
drawing
  6
ByLayer
 62
  256
370
   -1
100
AcDbCircle
 10
-49.99999999999999
 20
60.00000000000001
 40
20.99999999999999
100
AcDbArc
 50
0.6449764381226972
 51
180
  0
LINE
  5
EA
100
AcDbEntity
  8
help
  6
ByLayer
 62
  256
370
   -1
100
AcDbLine
 10
0
 20
0
 11
8.002661075171357
 21
60.4727824373572
  0
LINE
  5
EB
100
AcDbEntity
  8
help
  6
ByLayer
 62
  256
370
   -1
100
AcDbLine
 10
-8.002661075171357
 20
60.4727824373572
 11
0
 21
0
  0
ARC
  5
EC
100
AcDbEntity
  8
drawing
  6
ByLayer
 62
  256
370
   -1
100
AcDbCircle
 10
-8.001175355329945
 20
60.47726357330584
 40
21.0042475936656
100
AcDbArc
 50
181.3020005570392
 51
277.5328092161172
  0
ARC
  5
ED
100
AcDbEntity
  8
drawing
  6
ByLayer
 62
  256
370
   -1
100
AcDbCircle
 10
8.000678171269385
 20
60.47784400464852
 40
21.00475784576867
100
AcDbArc
 50
262.4687428323303
 51
358.6964473945133
  0
CIRCLE
  5
EE
100
AcDbEntity
  8
help
  6
ByLayer
 62
  256
370
   -1
100
AcDbCircle
 10
-50
 20
-60
 40
21
  0
LINE
  5
EF
100
AcDbEntity
  8
drawing
  6
ByLayer
 62
  256
370
   -1
100
AcDbLine
 10
-29.00133053758568
 20
60.23639121867861
 11
-29
 21
60
  0
ARC
  5
F0
100
AcDbEntity
  8
drawing
  6
ByLayer
 62
  256
370
   -1
100
AcDbCircle
 10
8.002661075171392
 20
-60.47278243735707
 40
20.99999999999989
100
AcDbArc
 50
1.290034625275172
 51
97.53843060765372
  0
ARC
  5
F1
100
AcDbEntity
  8
drawing
  6
ByLayer
 62
  256
370
   -1
100
AcDbCircle
 10
-8.00138908512471
 20
-60.47701405711739
 40
21.00402825090957
100
AcDbArc
 50
82.46652356515025
 51
178.6986666616934
  0
DIMENSION
  5
F2
100
AcDbEntity
  8
dimensions_rad
  6
ByLayer
 62
  256
370
   -1
100
AcDbDimension
  2
*D5
 10
-50
 20
60
 30
0
 11
-34.05245357187561
 21
40.97924701351636
 31
0
 70
   36
 71
    5
  3
Standard
 53
0
210
0
220
0
230
1
100
AcDbRadialDimension
 15
-42.70682014952777
 25
46.89238665245782
 35
0
 40
0
  0
DIMENSION
  5
F3
100
AcDbEntity
  8
dimensions_rad
  6
ByLayer
 62
  256
370
   -1
100
AcDbDimension
  2
*D6
 10
-70
 20
0
 30
0
 11
-61.48455320562375
 21
23.3152406623255
 31
0
 70
   36
 71
    5
  3
Standard
 53
0
210
0
220
0
230
1
100
AcDbRadialDimension
 15
-62.28581295371397
 25
12.86434289868366
 35
0
 40
0
  0
DIMENSION
  5
F4
100
AcDbEntity
  8
dimensions_rad
  6
ByLayer
 62
  256
370
   -1
100
AcDbDimension
  2
*D7
 10
-70
 20
0
 30
0
 11
-49.25987802767413
 21
22.27086630601909
 31
0
 70
   36
 71
    5
  3
Standard
 53
0
210
0
220
0
230
1
100
AcDbRadialDimension
 15
-54.27807086389308
 25
12.3620768578436
 35
0
 40
0
  0
CIRCLE
  5
F5
100
AcDbEntity
  8
help
  6
ByLayer
 62
  256
370
   -1
100
AcDbCircle
 10
0
 20
0
 40
32
  0
LINE
  5
F6
100
AcDbEntity
  8
help
  6
ByLayer
 62
  256
370
   -1
100
AcDbLine
 10
0
 20
0
 11
3
 21
0
  0
LINE
  5
F7
100
AcDbEntity
  8
help
  6
ByLayer
 62
  256
370
   -1
100
AcDbLine
 10
3
 20
1.732050807568877
 11
9.81300122298407e-16
 21
3.464101615137754
  0
LINE
  5
F8
100
AcDbEntity
  8
help
  6
ByLayer
 62
  256
370
   -1
100
AcDbLine
 10
9.81300122298407e-16
 20
3.464101615137754
 11
-2.999999999999999
 21
1.732050807568878
  0
LINE
  5
F9
100
AcDbEntity
  8
help
  6
ByLayer
 62
  256
370
   -1
100
AcDbLine
 10
-2.999999999999999
 20
1.732050807568878
 11
-3
 21
-1.732050807568876
  0
LINE
  5
FA
100
AcDbEntity
  8
help
  6
ByLayer
 62
  256
370
   -1
100
AcDbLine
 10
-3
 20
-1.732050807568876
 11
-6.363451432349441e-16
 21
-3.464101615137754
  0
LINE
  5
FB
100
AcDbEntity
  8
help
  6
ByLayer
 62
  256
370
   -1
100
AcDbLine
 10
-6.363451432349441e-16
 20
-3.464101615137754
 11
2.999999999999997
 21
-1.732050807568881
  0
LINE
  5
FC
100
AcDbEntity
  8
help
  6
ByLayer
 62
  256
370
   -1
100
AcDbLine
 10
2.999999999999997
 20
-1.732050807568881
 11
3
 21
1.732050807568877
  0
LINE
  5
FD
100
AcDbEntity
  8
help
  6
ByLayer
 62
  256
370
   -1
100
AcDbLine
 10
2.999999999999997
 20
-40
 11
3.000000000000002
 21
40
  0
LINE
  5
FE
100
AcDbEntity
  8
help
  6
ByLayer
 62
  256
370
   -1
100
AcDbLine
 10
-3.000000000000002
 20
-40
 11
-2.999999999999997
 21
40
  0
LINE
  5
FF
100
AcDbEntity
  8
help
  6
ByLayer
 62
  256
370
   -1
100
AcDbLine
 10
33.31088913245535
 20
-15.76794919243112
 11
-27.31088913245536
 21
19.23205080756887
  0
LINE
  5
100
100
AcDbEntity
  8
help
  6
ByLayer
 62
  256
370
   -1
100
AcDbLine
 10
30.31088913245535
 20
-20.96410161513775
 11
-30.31088913245535
 21
14.03589838486224
  0
LINE
  5
101
100
AcDbEntity
  8
help
  6
ByLayer
 62
  256
370
   -1
100
AcDbLine
 10
-30.31088913245535
 20
-14.03589838486224
 11
30.31088913245535
 21
20.96410161513775
  0
LINE
  5
102
100
AcDbEntity
  8
help
  6
ByLayer
 62
  256
370
   -1
100
AcDbLine
 10
-27.31088913245536
 20
-19.23205080756888
 11
33.31088913245535
 21
15.76794919243111
  0
ARC
  5
103
100
AcDbEntity
  8
drawing
  6
ByLayer
 62
  256
370
   -1
100
AcDbCircle
 10
-1.06581410364015e-14
 20
2.131628207280301e-14
 40
31.99999999999998
100
AcDbArc
 50
95.37937899111206
 51
144.620621008888
  0
ARC
  5
104
100
AcDbEntity
  8
drawing
  6
ByLayer
 62
  256
370
   -1
100
AcDbCircle
 10
2.176037128265307e-14
 20
3.197442310920451e-14
 40
31.99999999999996
100
AcDbArc
 50
35.37937899111206
 51
84.62062100888795
  0
ARC
  5
105
100
AcDbEntity
  8
drawing
  6
ByLayer
 62
  256
370
   -1
100
AcDbCircle
 10
-1.06581410364015e-14
 20
3.552713678800501e-15
 40
32.00000000000001
100
AcDbArc
 50
335.379378991112
 51
24.6206210088879
  0
ARC
  5
106
100
AcDbEntity
  8
drawing
  6
ByLayer
 62
  256
370
   -1
100
AcDbCircle
 10
-3.552713678800501e-15
 20
3.552713678800501e-15
 40
32
100
AcDbArc
 50
275.3793789911121
 51
324.620621008888
  0
ARC
  5
107
100
AcDbEntity
  8
drawing
  6
ByLayer
 62
  256
370
   -1
100
AcDbCircle
 10
-4.130029651605582e-14
 20
-8.171241461241152e-14
 40
31.99999999999991
100
AcDbArc
 50
215.379378991112
 51
264.620621008888
  0
ARC
  5
108
100
AcDbEntity
  8
drawing
  6
ByLayer
 62
  256
370
   -1
100
AcDbCircle
 10
2.131628207280301e-14
 20
-1.77635683940025e-15
 40
32.00000000000002
100
AcDbArc
 50
155.3793789911121
 51
204.6206210088879
  0
ARC
  5
109
100
AcDbEntity
  8
drawing
  6
ByLayer
 62
  256
370
   -1
100
AcDbCircle
 10
-1.06581410364015e-14
 20
0
 40
20.99999999999999
100
AcDbArc
 50
158.2132107017382
 51
201.7867892982618
  0
ARC
  5
10A
100
AcDbEntity
  8
drawing
  6
ByLayer
 62
  256
370
   -1
100
AcDbCircle
 10
-1.4210854715202e-14
 20
2.131628207280301e-14
 40
20.99999999999998
100
AcDbArc
 50
98.21321070173816
 51
141.7867892982619
  0
ARC
  5
10B
100
AcDbEntity
  8
drawing
  6
ByLayer
 62
  256
370
   -1
100
AcDbCircle
 10
2.220446049250313e-15
 20
-3.552713678800501e-15
 40
21
100
AcDbArc
 50
38.21321070173818
 51
81.78678929826182
  0
ARC
  5
10C
100
AcDbEntity
  8
drawing
  6
ByLayer
 62
  256
370
   -1
100
AcDbCircle
 10
-1.4210854715202e-14
 20
3.552713678800501e-15
 40
21.00000000000001
100
AcDbArc
 50
338.2132107017382
 51
21.78678929826178
  0
ARC
  5
10D
100
AcDbEntity
  8
drawing
  6
ByLayer
 62
  256
370
   -1
100
AcDbCircle
 10
-1.77635683940025e-14
 20
2.486899575160351e-14
 40
21.00000000000003
100
AcDbArc
 50
278.2132107017382
 51
321.7867892982618
  0
ARC
  5
10E
100
AcDbEntity
  8
drawing
  6
ByLayer
 62
  256
370
   -1
100
AcDbCircle
 10
-3.375077994860476e-14
 20
-4.973799150320701e-14
 40
20.99999999999994
100
AcDbArc
 50
218.2132107017381
 51
261.7867892982619
  0
LINE
  5
10F
100
AcDbEntity
  8
drawing
  6
ByLayer
 62
  256
370
   -1
100
AcDbLine
 10
-16.50000000000001
 20
-12.99038105676657
 11
-26.09075932264279
 21
-18.5276085334273
  0
LINE
  5
110
100
AcDbEntity
  8
drawing
  6
ByLayer
 62
  256
370
   -1
100
AcDbLine
 10
-19.5
 20
-7.794228634059945
 11
-29.09075932264279
 21
-13.33145611072068
  0
LINE
  5
111
100
AcDbEntity
  8
drawing
  6
ByLayer
 62
  256
370
   -1
100
AcDbLine
 10
-19.5
 20
7.794228634059943
 11
-29.09075932264279
 21
13.33145611072067
  0
LINE
  5
112
100
AcDbEntity
  8
drawing
  6
ByLayer
 62
  256
370
   -1
100
AcDbLine
 10
-26.09075932264279
 20
18.5276085334273
 11
-16.5
 21
12.99038105676658
  0
LINE
  5
113
100
AcDbEntity
  8
drawing
  6
ByLayer
 62
  256
370
   -1
100
AcDbLine
 10
-3
 20
20.78460969082653
 11
-3.000000000000002
 21
31.85906464414798
  0
LINE
  5
114
100
AcDbEntity
  8
drawing
  6
ByLayer
 62
  256
370
   -1
100
AcDbLine
 10
3.000000000000007
 20
31.85906464414798
 11
3
 21
20.78460969082652
  0
LINE
  5
115
100
AcDbEntity
  8
drawing
  6
ByLayer
 62
  256
370
   -1
100
AcDbLine
 10
16.50000000000001
 20
12.99038105676657
 11
26.09075932264279
 21
18.5276085334273
  0
LINE
  5
116
100
AcDbEntity
  8
drawing
  6
ByLayer
 62
  256
370
   -1
100
AcDbLine
 10
29.09075932264279
 20
13.33145611072067
 11
19.5
 21
7.794228634059944
  0
LINE
  5
117
100
AcDbEntity
  8
drawing
  6
ByLayer
 62
  256
370
   -1
100
AcDbLine
 10
19.5
 20
-7.794228634059951
 11
29.09075932264279
 21
-13.33145611072067
  0
LINE
  5
118
100
AcDbEntity
  8
drawing
  6
ByLayer
 62
  256
370
   -1
100
AcDbLine
 10
-3.000000000000002
 20
-20.78460969082652
 11
-3.000000000000018
 21
-31.85906464414798
  0
LINE
  5
119
100
AcDbEntity
  8
drawing
  6
ByLayer
 62
  256
370
   -1
100
AcDbLine
 10
2.999999999999999
 20
-31.85906464414798
 11
2.999999999999992
 21
-20.78460969082654
  0
LINE
  5
11A
100
AcDbEntity
  8
drawing
  6
ByLayer
 62
  256
370
   -1
100
AcDbLine
 10
16.50000000000001
 20
-12.99038105676658
 11
26.09075932264279
 21
-18.5276085334273
  0
CIRCLE
  5
11B
100
AcDbEntity
  8
drawing
  6
ByLayer
 62
  256
370
   -1
100
AcDbCircle
 10
0
 20
0
 40
16
  0
DIMENSION
  5
11C
100
AcDbEntity
  8
dimensions_rad
  6
ByLayer
 62
  256
370
   -1
100
AcDbDimension
  2
*D8
 10
0
 20
0
 30
0
 11
12.62243483590169
 21
-16.20638130686229
 31
0
 70
   36
 71
    5
  3
Standard
 53
0
210
0
220
0
230
1
100
AcDbRadialDimension
 15
16.72916780063204
 25
-36.33366131699771
 35
0
 40
0
  0
DIMENSION
  5
11D
100
AcDbEntity
  8
dimensions_rad
  6
ByLayer
 62
  256
370
   -1
100
AcDbDimension
  2
*D9
 10
-1.06581410364015e-14
 20
3.552713678800501e-15
 30
0
 11
16.67111607638977
 21
0.2157429431952167
 31
0
 70
   36
 71
    5
  3
Standard
 53
0
210
0
220
0
230
1
100
AcDbRadialDimension
 15
30.82307802564967
 25
-8.598712753936622
 35
0
 40
0
  0
DIMENSION
  5
11E
100
AcDbEntity
  8
dimensions_rad
  6
ByLayer
 62
  256
370
   -1
100
AcDbDimension
  2
*D10
 10
-1.4210854715202e-14
 20
3.552713678800501e-15
 30
0
 11
3.788487220770763
 21
10.85679606643031
 31
0
 70
   36
 71
    5
  3
Standard
 53
0
210
0
220
0
230
1
100
AcDbRadialDimension
 15
14.40053731312925
 25
15.28478083235649
 35
0
 40
0
  0
DIMENSION
  5
11F
100
AcDbEntity
  8
dimensions_rad
  6
ByLayer
 62
  256
370
   -1
100
AcDbDimension
  2
*D11
 10
0
 20
0
 30
0
 11
-24.70215198886743
 21
7.461029980431839
 31
0
 70
   36
 71
    5
  3
Standard
 53
0
210
0
220
0
230
1
100
AcDbRadialDimension
 15
-15.9021397547779
 25
1.766904417197543
 35
0
 40
0
  0
ARC
  5
120
100
AcDbEntity
  8
drawing
  6
ByLayer
 62
  256
370
   -1
100
AcDbCircle
 10
-50
 20
-60
 40
21.00000000000003
100
AcDbArc
 50
180
 51
0
  0
ARC
  5
121
100
AcDbEntity
  8
drawing
  6
ByLayer
 62
  256
370
   -1
100
AcDbCircle
 10
50
 20
-60
 40
21
100
AcDbArc
 50
180
 51
0
  0
DIMENSION
  5
122
100
AcDbEntity
  8
dimensions_rad
  6
ByLayer
 62
  256
370
   -1
100
AcDbDimension
  2
*D12
 10
-50
 20
-60
 30
0
 11
-61.16024237209344
 21
-62.76977371749577
 31
0
 70
   36
 71
    5
  3
Standard
 53
0
210
0
220
0
230
1
100
AcDbRadialDimension
 15
-66.5492352429625
 25
-72.92759888274266
 35
0
 40
0
  0
DIMENSION
  5
123
100
AcDbEntity
  8
dimensions_lin
  6
ByLayer
 62
  256
370
   -1
100
AcDbDimension
  2
*D13
 10
2.999999999999997
 20
-54.71175312544085
 30
0
 11
-9.704980628076248e-15
 21
-50.02425312544085
 31
0
 70
   32
 71
    5
  3
Standard
 53
0
210
0
220
0
230
1
100
AcDbAlignedDimension
 13
-3.000000000000018
 23
-31.85906464414798
 33
0
 14
2.999999999999999
 24
-31.85906464414798
 34
0
100
AcDbRotatedDimension
  0
DIMENSION
  5
124
100
AcDbEntity
  8
dimensions_lin
  6
ByLayer
 62
  256
370
   -1
100
AcDbDimension
  2
*D14
 10
50
 20
90
 30
0
 11
25.00000000000001
 21
94.6875
 31
0
 70
   32
 71
    5
  3
Standard
 53
0
210
0
220
0
230
1
100
AcDbAlignedDimension
 13
2.176037128265307e-14
 23
3.197442310920451e-14
 33
0
 14
50
 24
60
 34
0
100
AcDbRotatedDimension
  0
DIMENSION
  5
125
100
AcDbEntity
  8
dimensions_lin
  6
ByLayer
 62
  256
370
   -1
100
AcDbDimension
  2
*D15
 10
2.727128187881616e-14
 20
90
 30
0
 11
-24.99999999999999
 21
94.6875
 31
0
 70
   32
 71
    5
  3
Standard
 53
0
210
0
220
0
230
1
100
AcDbAlignedDimension
 13
-50
 23
60
 33
0
 14
2.176037128265307e-14
 24
3.197442310920451e-14
 34
0
100
AcDbRotatedDimension
  0
DIMENSION
  5
126
100
AcDbEntity
  8
dimensions_rad
  6
ByLayer
 62
  256
370
   -1
100
AcDbDimension
  2
*D16
 10
50.00000000000001
 20
59.99999999999999
 30
0
 11
43.39752849707659
 21
69.41435214462918
 31
0
 70
   36
 71
    5
  3
Standard
 53
0
210
0
220
0
230
1
100
AcDbRadialDimension
 15
31.98062024161197
 25
70.78433832569227
 35
0
 40
0
  0
ENDSEC
  0
SECTION
  2
OBJECTS
  0
DICTIONARY
  5
C
330
0
100
AcDbDictionary
281
    1
  3
ACAD_GROUP
350
D
  0
DICTIONARY
  5
D
330
C
100
AcDbDictionary
281
    1
  0
PLOTSETTINGS
  5
127
100
AcDbPlotSettings
  6
1x1
 40
0
 41
0
 42
0
 43
0
  0
ENDSEC
  0
EOF
